<svg xmlns="http://www.w3.org/2000/svg" viewBox="0 0 18 18">
    <path d="M10.25 0h-1.5c-.415 0-.75.336-.75.75v1.5c0 .414.335.75.75.75h1.5c.414 0 .75-.336.75-.75v-1.5c0-.414-.336-.75-.75-.75zm0 5h-1.5c-.415 0-.75.336-.75.75v1.5c0 .414.335.75.75.75h1.5c.414 0 .75-.336.75-.75v-1.5c0-.414-.336-.75-.75-.75zm0 5h-1.5c-.415 0-.75.335-.75.75v1.5c0 .414.335.75.75.75h1.5c.414 0 .75-.336.75-.75v-1.5c0-.415-.336-.75-.75-.75zm0 5h-1.5c-.415 0-.75.336-.75.75v1.5c0 .414.335.75.75.75h1.5c.414 0 .75-.336.75-.75v-1.5c0-.414-.336-.75-.75-.75z"></path>
</svg>
