<svg xmlns="http://www.w3.org/2000/svg" viewBox="-2.5 -1.5 18 18">
    <path d="M14.501 6.5c-.547 0-1.001.447-1.001 1v6.6c0 .389-.426.4-.477.4h-13.046c-.051 0-.477-.012-.477-.4v-13.1c0-.275.203-.5.477-.5h6.533c.547 0 .99-.447.99-1s-.443-1-.99-1h-6.533c-1.366 0-2.477 1.121-2.477 2.5v13.1c0 1.346 1.088 2.4 2.477 2.4h13.046c1.389 0 2.477-1.055 2.477-2.4v-6.6c0-.553-.452-1-.999-1zm.439-6.39l-1.09-1.06c-.38-.37-.87-.55-1.36-.55s-.99.18-1.37.55l-9.12 9.24c-.28.28-.5.79-.5 1.18v2.28c0 .41.35.75.77.75h2.34c.41 0 .91-.21 1.2-.49l9.13-9.24c.75-.73.75-1.92 0-2.66zm-10.23 10.87l-.14.06h-1.57v-1.49l.05-.15 7.271-7.43 1.609 1.61-7.22 7.4z"></path>
</svg>
