<svg xmlns="http://www.w3.org/2000/svg" viewBox="0 0 18 18">
    <path d="M19.048 17.745c.434 0 .794-.322.778-.702-.296-6.402-3.406-10.073-8.1-11.055v-2.137c0-.918-.95-1.44-1.635-.882l-6.068 4.973c-.546.445-.557 1.318-.012 1.763l6.085 4.971c.685.561 1.629.037 1.629-.881v-1.883c3.688.491 5.823 2.104 6.569 5.272.075.322.382.561.754.561"></path>
    <path fill="#5D5D5D" d="M7.927 15.13c-.143.166-.357.262-.559.262-.155 0-.321-.06-.452-.166l-6.077-4.972c-.429-.345-.666-.857-.666-1.428 0-.559.237-1.082.678-1.439l6.065-4.971c.297-.25.75-.203.999.095.202.262.214.619.024.868l-.012.024-5.554 4.544c-.547.44-.559 1.308-.012 1.76l5.614 4.579c.166.249.154.595-.048.844z"></path>
</svg>
