<svg xmlns="http://www.w3.org/2000/svg" viewBox="0 0 18 18">
    <path d="M13.5 4h-.4l-.7 2h1.1c1.4 0 2.5 1.1 2.5 2.5v1c0 1.4-1.1 2.5-2.5 2.5h-2.5c-.5 0-1 .5-1 1s.5 1 1 1h2.5c2.5 0 4.5-2 4.5-4.5v-1c0-2.5-2-4.5-4.5-4.5zm-2.5 6h1c.5 0 1-.5 1-1s-.5-1-1-1h-.3l-.7 2zm.3-9c-.5-.2-1.1.1-1.3.6l-2.2 6.4h-1.8c-.5 0-1 .5-1 1s.5 1 1 1h1.1l-.7 2h-1.9c-1.4 0-2.5-1.1-2.5-2.5v-1c0-1.4 1.1-2.5 2.5-2.5h2.5c.6 0 1-.4 1-1s-.4-1-1-1h-2.5c-2.5 0-4.5 2-4.5 4.5v1c0 2.5 2 4.5 4.5 4.5h1.2l-.6 1.7c-.2.5.1 1.1.6 1.3.5.2 1.1-.1 1.3-.6l4.9-14c.2-.6-.1-1.2-.6-1.4z"></path>
</svg>
