<!--Editor: Not Included in Icon Set-->
  <svg xmlns="http://www.w3.org/2000/svg" viewBox="0 0 18 18">
    <path d="M8.0366,5.1245 L9.4076,9.3855 L6.5766,9.3855 L8.0076,5.1245 L8.0366,5.1245 Z M11.6496,13.4995 C11.1186,13.4995 10.7346,13.3075 10.5576,12.8365 L9.9386,11.0665 L6.0456,11.0665 L5.4116,12.8365 C5.2496,13.3075 4.9106,13.4995 4.3356,13.4995 C3.6726,13.4995 3.2146,13.0865 3.2146,12.4375 C3.2146,12.1725 3.3626,11.7445 3.4506,11.5095 L6.5766,3.2375 C6.7836,2.6905 7.1666,2.4995 7.7566,2.4995 L8.3316,2.4995 C8.8766,2.4995 9.3636,2.6325 9.6296,3.3845 L12.5486,11.5095 C12.6376,11.7445 12.7846,12.1725 12.7846,12.4375 C12.7846,13.0285 12.2686,13.4995 11.6496,13.4995 L11.6496,13.4995 Z M14.2226,-0.0005 L1.7776,-0.0005 C0.7956,-0.0005 -0.0004,0.7955 -0.0004,1.7775 L-0.0004,14.2225 C-0.0004,15.2045 0.7956,15.9995 1.7776,15.9995 L14.2226,15.9995 C15.2036,15.9995 15.9996,15.2045 15.9996,14.2225 L15.9996,1.7775 C15.9996,0.7955 15.2036,-0.0005 14.2226,-0.0005 L14.2226,-0.0005 Z"></path>
</svg>
