<svg xmlns="http://www.w3.org/2000/svg" viewBox="0 0 18 18">
    <path d="M8.805,6.262L6.869,0.909C6.599,0.141,6.112,0,5.55,0H4.966C4.371,0,3.982,0.195,3.765,0.757L0.585,9.15 l-0.238,0.952c0,0.66,0.465,1.082,1.136,1.082c0.584,0,0.93-0.195,1.103-0.681l0.638-1.795H6.35L8.805,6.262z M5.225,2.671h0.022 l1.395,4.326H3.765L5.225,2.671z M17.652,9.947c0-0.406-0.167-0.8-0.446-1.069l-3.07-3.071c-0.282-0.291-0.675-0.458-1.081-0.459 c-0.001,0-0.001,0-0.002,0c-0.406,0-0.799,0.166-1.07,0.445L8.924,8.85L8.923,8.848L5.43,12.343 c-0.576,0.595-0.576,1.526,0.012,2.132l3.096,3.097C8.835,17.857,9.213,18,9.593,18c0.385,0,0.772-0.147,1.078-0.442l1.756-1.756 l0.001,0.001l1.194-1.196l0.53-0.53l0,0l3.052-3.057C17.488,10.74,17.652,10.349,17.652,9.947z M9.598,15.641l-2.239-2.239 l2.39-2.391l2.24,2.239L9.598,15.641z"></path>
 </svg>
