<svg xmlns="http://www.w3.org/2000/svg" viewBox="0 0 18 18">
  <path d="M2 12c-.256 0-.512-.098-.707-.293-.391-.391-.391-1.023 0-1.414l3.293-3.293-3.293-3.293c-.391-.391-.391-1.023 0-1.414s1.023-.391 1.414 0l4 4c.391.391.391 1.023 0 1.414l-4 4c-.195.195-.451.293-.707.293m6 0c-.256 0-.512-.098-.707-.293-.391-.391-.391-1.023 0-1.414l3.293-3.293-3.293-3.293c-.391-.391-.391-1.023 0-1.414s1.023-.391 1.414 0l4 4c.391.391.391 1.023 0 1.414l-4 4c-.195.195-.451.293-.707.293" fill="#5C5C5C"></path>
</svg>
