<svg xmlns="http://www.w3.org/2000/svg" viewBox="0 0 18 18">
  <path d="M8.4077,6.8855 L5.5767,6.8855 L7.0067,2.6245 L7.0367,2.6245 L8.4077,6.8855 Z M2.4507,9.0095 C2.3627,9.2445 2.2147,9.6725 2.2147,9.9375 C2.2147,10.5865 2.6727,11.0005 3.3357,11.0005 C3.9107,11.0005 4.2497,10.8075 4.4117,10.3365 L5.0457,8.5665 L8.9387,8.5665 L9.5577,10.3365 C9.7347,10.8075 10.1187,11.0005 10.6497,11.0005 C11.2687,11.0005 11.7847,10.5285 11.7847,9.9375 C11.7847,9.6725 11.6377,9.2445 11.5487,9.0095 L8.6297,0.8845 C8.3637,0.1325 7.8767,0.0005 7.3317,0.0005 L6.7567,0.0005 C6.1667,0.0005 5.7827,0.1905 5.5767,0.7375 L2.4507,9.0095 Z M11.9997,17.0005 L1.9997,17.0005 C0.8957,17.0005 -0.0003,16.1045 -0.0003,15.0005 L-0.0003,15.0005 C-0.0003,13.8955 0.8957,13.0005 1.9997,13.0005 L11.9997,13.0005 C13.1047,13.0005 13.9997,13.8955 13.9997,15.0005 L13.9997,15.0005 C13.9997,16.1045 13.1047,17.0005 11.9997,17.0005 L11.9997,17.0005 Z"></path>
</svg>
