<svg xmlns="http://www.w3.org/2000/svg" viewBox="0 0 14 14">
  <path d="M11.5 1h-9c-1.379 0-2.5 1.121-2.5 2.5v8c0 1.379 1.121 2.5 2.5 2.5h9c1.379 0 2.5-1.121 2.5-2.5v-8c0-1.379-1.121-2.5-2.5-2.5m0 2c.275 0 .5.225.5.5v8c0 .275-.225.5-.5.5h-9c-.275 0-.5-.225-.5-.5v-8c0-.275.225-.5.5-.5h9"></path>
  <path d="M11 7.01c0 .547-.443.99-.99.99h-6.02c-.547 0-.99-.443-.99-.99v-.02c0-.546.443-.99.99-.99h6.02c.547 0 .99.444.99.99v.02zm0 3c0 .547-.443.99-.99.99h-6.02c-.547 0-.99-.443-.99-.99v-.02c0-.546.443-.99.99-.99h6.02c.547 0 .99.444.99.99v.02z"></path>
  <path d="M10 3.01c0 .547-.443.99-.99.99h-.02c-.547 0-.99-.443-.99-.99v-2.02c0-.546.443-.99.99-.99h.02c.547 0 .99.444.99.99v2.02z"></path>
  <path d="M6 3.01c0 .547-.443.99-.99.99h-.02c-.547 0-.99-.443-.99-.99v-2.02c0-.546.443-.99.99-.99h.02c.547 0 .99.444.99.99v2.02z"></path>
</svg>
