<svg xmlns="http://www.w3.org/2000/svg" viewBox="0 0 14 14">
  <path d="M9.5.5h-6c-1.1 0-2 .9-2 2v1h-1.5c-.279 0-.5.22-.5.5s.221.5.5.5h1.5v1h-1.5c-.279 0-.5.221-.5.5s.221.5.5.5h1.5v1h-1.5c-.279 0-.5.22-.5.5s.221.5.5.5h1.5v1h-1.5c-.279 0-.5.22-.5.5s.221.5.5.5h1.5c0 1.1.9 2 2 2h6c1.1 0 2-.9 2-2v-8c0-1.1-.9-2-2-2zm-1.43 3.43h-3.43c-.47 0-.85-.39-.85-.86s.38-.86.851-.86h3.43c.47 0 .859.39.859.86s-.39.86-.86.86z"></path>
  <path fill="#f0f0f0" d="M13.5 14.5v-6h-7.5c-1.381 0-2.5 1.119-2.5 2.5v3.5h10z"></path>
  <path d="M7.5 14.5h-.75c-1.24 0-2.25-1.011-2.25-2.25v-.501c0-1.239 1.01-2.249 2.25-2.249h1.25c.277 0 .5.223.5.5 0 .275-.223.5-.5.5h-1.25c-.689 0-1.25.561-1.25 1.249v.501c0 .688.561 1.25 1.25 1.25h1.25c.277 0 .5.225.5.5s-.473.5-.75.5m3.75 0h-1.5c-.277 0-.5-.225-.5-.5s.223-.5.5-.5h1.25c.689 0 1.25-.562 1.25-1.25v-.501c0-.688-.561-1.249-1.25-1.249h-1.25c-.277 0-.5-.225-.5-.5 0-.277.223-.5.5-.5h1.25c1.24 0 2.25 1.01 2.25 2.249v.501c0 1.239-.885 2.25-2.125 2.25m-.875-2h-3.001c-.274 0-.499-.225-.499-.5s.224-.5.499-.5h3.002c.274 0 .499.225.499.5s-.225.5-.5.5"></path>
</svg>
