<svg xmlns="http://www.w3.org/2000/svg" viewBox="0 0 33.625 23.531">
   <path d="M29.000,10.230 C29.169,9.571 29.259,8.878 29.259,8.164 C29.259,3.660 25.706,0.011 21.327,0.011 C18.033,0.011 15.206,2.074 14.009,5.014 C12.979,3.768 11.444,2.977 9.730,2.977 C6.630,2.977 4.116,5.563 4.116,8.750 C4.116,9.297 4.191,9.829 4.331,10.331 C1.798,11.284 -0.006,13.783 -0.006,16.720 C-0.006,20.473 2.952,23.522 6.610,23.522 L15.243,23.522 L15.243,17.791 L11.678,17.791 L17.144,10.985 L22.608,17.791 L19.043,17.791 L19.043,23.522 L27.007,23.522 C30.667,23.522 33.625,20.473 33.625,16.720 C33.625,13.676 31.685,11.100 29.000,10.230 Z"></path>
</svg>
